<svg id="svg" version="1.1" xmlns="http://www.w3.org/2000/svg" xmlns:xlink="http://www.w3.org/1999/xlink" width="400" height="400" viewBox="0, 0, 400,400"><g id="svgg"><path id="path0" d="M294.600 99.371 C 292.620 100.076,287.400 101.877,283.000 103.374 C 278.600 104.870,274.872 106.210,274.716 106.351 C 274.560 106.492,275.234 110.566,276.214 115.404 C 277.195 120.242,278.178 125.190,278.400 126.400 C 278.968 129.495,279.792 133.688,280.522 137.200 C 280.865 138.850,281.705 143.170,282.389 146.800 C 284.006 155.384,283.964 155.200,284.330 155.200 C 284.504 155.200,286.154 154.612,287.999 153.893 C 291.784 152.418,291.520 152.846,292.379 146.800 C 292.916 143.024,293.788 137.171,294.405 133.200 C 294.774 130.825,297.078 114.936,298.031 108.200 C 298.248 106.660,298.594 104.230,298.800 102.800 C 299.585 97.342,299.802 97.519,294.600 99.371 M226.899 119.518 C 222.883 123.853,218.677 128.371,217.550 129.558 L 215.503 131.715 218.945 134.885 C 238.406 152.805,240.301 173.303,225.483 205.600 C 223.811 209.243,222.420 212.369,220.409 217.000 C 218.720 220.889,217.932 222.667,215.800 227.400 C 215.502 228.060,214.241 230.940,212.996 233.800 C 211.752 236.660,210.484 239.540,210.179 240.200 C 209.874 240.860,208.099 244.885,206.235 249.143 C 202.060 258.685,202.298 258.424,201.067 254.800 C 200.731 253.810,199.706 250.930,198.791 248.400 C 197.875 245.870,196.978 243.350,196.797 242.800 C 196.616 242.250,195.449 238.920,194.204 235.400 C 192.959 231.880,191.336 227.290,190.597 225.200 C 189.858 223.110,188.507 219.330,187.594 216.800 C 186.681 214.270,185.510 210.940,184.992 209.400 C 184.474 207.860,183.212 204.260,182.187 201.400 C 179.914 195.056,176.706 186.007,173.607 177.200 C 172.330 173.570,170.295 167.810,169.085 164.400 C 167.876 160.990,166.044 155.770,165.014 152.800 C 163.985 149.830,162.982 147.040,162.787 146.600 C 162.592 146.160,161.877 144.179,161.200 142.198 C 160.522 140.216,159.816 138.349,159.629 138.048 C 159.299 137.512,147.053 141.704,138.133 145.406 L 136.867 145.931 139.200 152.066 C 140.483 155.440,142.735 161.440,144.203 165.400 C 145.672 169.360,147.918 175.390,149.194 178.800 C 153.094 189.223,156.684 198.882,157.545 201.266 C 158.545 204.036,158.648 203.640,153.399 217.200 C 153.101 217.970,151.204 223.010,149.183 228.400 C 147.163 233.790,144.459 240.990,143.174 244.400 C 141.890 247.810,140.643 251.126,140.403 251.769 C 139.766 253.478,139.206 252.656,137.293 247.200 C 136.406 244.670,134.931 240.530,134.017 238.000 C 133.102 235.470,131.995 232.320,131.556 231.000 C 131.117 229.680,130.498 228.033,130.179 227.340 C 129.861 226.646,129.600 225.905,129.600 225.693 C 129.600 225.480,129.253 224.428,128.829 223.353 C 128.404 222.279,127.486 219.780,126.787 217.800 C 126.089 215.820,125.370 213.840,125.191 213.400 C 125.011 212.960,124.400 211.295,123.832 209.700 C 123.264 208.105,122.362 205.585,121.827 204.100 C 121.291 202.615,119.953 198.880,118.853 195.800 C 117.753 192.720,115.662 186.870,114.207 182.800 C 112.752 178.730,111.281 174.590,110.939 173.600 C 110.596 172.610,110.169 171.440,109.990 171.000 C 109.811 170.560,109.200 168.895,108.632 167.300 C 108.064 165.705,107.150 163.140,106.600 161.600 C 106.050 160.060,105.150 157.540,104.600 156.000 C 104.050 154.460,103.150 151.940,102.600 150.400 C 101.094 146.183,99.919 142.923,97.028 134.945 C 95.583 130.955,94.400 127.490,94.400 127.245 C 94.400 126.632,83.109 130.315,77.400 132.791 C 76.960 132.982,75.700 133.452,74.600 133.835 C 71.749 134.829,71.777 134.636,73.744 139.846 C 74.732 142.461,76.554 147.390,77.793 150.800 C 79.033 154.210,80.203 157.360,80.393 157.800 C 80.584 158.240,81.487 160.670,82.400 163.200 C 83.313 165.730,84.207 168.160,84.387 168.600 C 84.567 169.040,85.440 171.380,86.327 173.800 C 87.213 176.220,89.105 181.350,90.530 185.200 C 91.955 189.050,94.508 195.980,96.202 200.600 C 97.897 205.220,99.425 209.360,99.597 209.800 C 100.349 211.722,104.219 222.183,107.587 231.400 C 109.598 236.900,111.427 241.845,111.654 242.390 C 111.880 242.934,112.779 245.364,113.653 247.790 C 114.527 250.215,115.487 252.830,115.787 253.600 C 116.470 255.351,118.139 259.877,122.793 272.600 C 124.805 278.100,126.697 283.230,126.998 284.000 C 127.539 285.387,129.055 289.491,131.717 296.771 C 132.867 299.917,133.161 300.415,133.489 299.771 C 133.893 298.981,136.825 291.229,139.681 283.400 C 140.564 280.980,141.437 278.640,141.620 278.200 C 141.804 277.760,142.670 275.415,143.545 272.990 C 144.420 270.564,145.323 268.134,145.553 267.590 C 145.782 267.045,146.804 264.260,147.823 261.400 C 148.841 258.540,150.484 254.040,151.473 251.400 C 152.461 248.760,153.897 244.890,154.663 242.800 C 155.429 240.710,156.304 238.370,156.606 237.600 C 156.909 236.830,158.539 232.420,160.230 227.800 C 161.921 223.180,163.372 219.323,163.456 219.229 C 163.817 218.824,164.739 220.771,166.339 225.325 C 167.282 228.006,168.311 230.767,168.627 231.460 C 168.942 232.154,169.200 232.921,169.200 233.166 C 169.200 233.411,169.379 233.923,169.599 234.305 C 169.931 234.884,171.884 240.052,174.171 246.400 C 175.080 248.925,179.220 260.075,181.597 266.400 C 184.133 273.152,188.128 283.896,191.262 292.400 C 193.528 298.548,194.370 300.564,194.583 300.350 C 194.664 300.267,196.921 295.160,199.597 289.000 C 202.274 282.840,204.706 277.260,205.002 276.600 C 206.672 272.877,208.048 269.729,213.395 257.400 C 216.640 249.920,219.620 243.080,220.017 242.200 C 221.875 238.084,222.800 235.963,222.800 235.816 C 222.800 235.728,223.355 234.428,224.033 232.928 C 224.711 231.428,225.590 229.480,225.987 228.600 C 226.383 227.720,227.197 225.830,227.795 224.400 C 228.393 222.970,229.210 221.077,229.609 220.192 C 230.009 219.308,231.625 215.618,233.200 211.992 C 234.775 208.367,236.306 204.860,236.602 204.200 C 236.897 203.540,237.717 201.650,238.424 200.000 C 239.131 198.350,240.200 195.920,240.801 194.600 C 241.680 192.670,244.017 187.051,246.791 180.200 C 251.803 167.823,254.566 150.040,252.820 141.400 C 250.532 130.079,245.185 120.212,237.979 114.009 C 234.375 110.908,235.301 110.447,226.899 119.518 M288.597 182.325 C 283.096 184.456,278.371 186.346,278.097 186.524 C 277.438 186.953,277.375 271.572,278.029 278.231 C 278.730 285.367,279.941 288.689,283.057 292.020 C 292.194 301.788,312.673 295.518,321.158 280.354 L 322.415 278.109 320.674 276.682 L 318.933 275.255 316.325 278.128 C 309.155 286.025,301.848 286.112,299.775 278.325 C 299.302 276.549,299.209 268.167,299.205 227.300 C 299.202 200.405,299.065 178.411,298.900 178.425 C 298.735 178.439,294.099 180.194,288.597 182.325 " stroke="none" fill="#fbf9f9" fill-rule="evenodd"></path><path id="path1" d="M185.600 0.245 C 173.604 1.249,156.308 3.838,155.000 4.826 C 154.780 4.992,153.880 5.257,153.000 5.413 C 149.125 6.103,137.420 9.385,136.600 10.011 C 136.380 10.179,135.570 10.498,134.800 10.720 C 131.525 11.663,122.551 14.937,122.000 15.390 C 121.670 15.661,119.435 16.667,117.034 17.624 C 114.633 18.582,112.060 19.778,111.317 20.282 C 110.573 20.787,109.879 21.200,109.774 21.200 C 109.227 21.200,101.280 25.372,100.574 26.030 C 100.120 26.454,99.621 26.800,99.465 26.800 C 99.028 26.800,92.702 30.463,91.800 31.239 C 91.360 31.617,89.920 32.555,88.600 33.324 C 87.280 34.093,85.696 35.189,85.079 35.761 C 84.463 36.332,83.857 36.800,83.733 36.800 C 83.425 36.800,78.903 40.013,77.823 41.000 C 75.882 42.773,73.243 44.800,72.874 44.800 C 72.659 44.800,71.938 45.421,71.271 46.180 C 70.605 46.939,69.208 48.210,68.166 49.005 C 66.068 50.606,62.460 54.046,57.482 59.192 C 55.677 61.058,53.469 63.308,52.576 64.192 C 51.682 65.076,50.152 66.790,49.176 68.000 C 48.199 69.210,47.260 70.262,47.088 70.337 C 46.917 70.413,45.817 71.763,44.644 73.337 C 43.472 74.912,42.082 76.677,41.556 77.260 C 41.030 77.843,39.790 79.505,38.800 80.953 C 37.810 82.402,36.539 84.125,35.974 84.782 C 35.410 85.439,34.262 87.152,33.422 88.587 C 32.583 90.023,31.559 91.586,31.147 92.061 C 30.236 93.112,26.800 99.017,26.800 99.532 C 26.800 99.736,26.503 100.148,26.141 100.449 C 25.779 100.750,24.463 103.067,23.217 105.598 C 21.970 108.129,20.639 110.675,20.259 111.255 C 19.607 112.250,17.256 117.564,16.303 120.200 C 16.064 120.860,15.722 121.499,15.541 121.619 C 15.192 121.853,13.505 126.310,11.535 132.200 C 10.873 134.180,10.099 136.340,9.814 137.000 C 8.695 139.592,5.200 152.545,5.200 154.100 C 5.200 154.485,5.052 154.800,4.871 154.800 C 4.293 154.800,2.075 167.742,0.929 177.800 C -0.120 187.011,-0.120 212.989,0.929 222.200 C 2.079 232.290,3.934 243.397,4.803 245.400 C 4.995 245.840,5.701 248.450,6.374 251.200 C 7.927 257.547,9.676 263.361,10.084 263.533 C 10.258 263.607,10.400 263.926,10.400 264.243 C 10.400 265.105,15.102 278.089,15.513 278.363 C 15.709 278.493,16.066 279.140,16.308 279.800 C 18.154 284.852,25.364 299.200,26.056 299.200 C 26.245 299.200,26.400 299.430,26.400 299.712 C 26.400 300.247,30.676 307.652,31.186 308.000 C 31.347 308.110,31.971 309.089,32.573 310.175 C 33.559 311.953,36.144 315.625,39.263 319.677 C 39.888 320.489,40.400 321.333,40.400 321.554 C 40.400 321.774,40.732 322.190,41.138 322.477 C 41.544 322.765,42.978 324.468,44.325 326.262 C 45.672 328.057,46.915 329.587,47.087 329.662 C 47.259 329.738,48.198 330.790,49.172 332.000 C 50.147 333.210,51.587 334.837,52.372 335.615 C 53.158 336.393,55.265 338.553,57.056 340.415 C 61.662 345.204,65.517 348.875,67.998 350.836 C 69.172 351.764,70.662 353.126,71.308 353.862 C 71.954 354.598,72.689 355.201,72.941 355.202 C 73.194 355.203,74.480 356.150,75.800 357.306 C 77.120 358.462,79.370 360.207,80.800 361.183 C 82.230 362.159,83.490 363.067,83.600 363.200 C 84.156 363.873,94.946 370.873,97.561 372.256 C 98.750 372.885,100.045 373.657,100.440 373.971 C 101.766 375.025,113.836 381.126,117.637 382.663 C 119.707 383.500,121.490 384.296,121.600 384.432 C 121.874 384.771,126.189 386.434,131.000 388.053 C 133.200 388.794,135.090 389.493,135.200 389.606 C 135.736 390.158,150.981 394.400,152.429 394.400 C 152.853 394.400,153.200 394.543,153.200 394.718 C 153.200 395.339,166.613 397.709,177.800 399.065 C 186.489 400.117,213.511 400.117,222.200 399.065 C 233.387 397.709,246.800 395.339,246.800 394.718 C 246.800 394.543,247.144 394.400,247.564 394.400 C 249.192 394.400,263.666 390.336,265.561 389.347 C 266.133 389.049,266.733 388.804,266.896 388.802 C 267.432 388.798,278.196 384.711,278.400 384.435 C 278.510 384.286,280.130 383.568,282.000 382.839 C 287.143 380.835,299.893 374.109,306.243 370.050 C 307.146 369.473,308.730 368.460,309.762 367.800 C 314.052 365.057,326.511 355.803,328.632 353.785 C 329.335 353.117,330.785 351.868,331.855 351.009 C 336.280 347.455,347.525 336.163,350.777 332.005 C 351.721 330.798,352.833 329.572,353.248 329.282 C 353.663 328.991,354.703 327.729,355.559 326.477 C 356.415 325.224,357.675 323.671,358.358 323.025 C 359.041 322.379,359.600 321.699,359.600 321.514 C 359.600 321.329,360.460 320.057,361.512 318.689 C 364.399 314.930,367.200 310.900,367.200 310.504 C 367.200 310.310,367.521 309.802,367.914 309.375 C 370.642 306.414,381.067 286.882,383.700 279.800 C 383.945 279.140,384.340 278.405,384.577 278.168 C 384.814 277.930,385.973 274.960,387.154 271.568 C 388.334 268.175,389.573 264.778,389.907 264.019 C 390.624 262.388,392.352 256.461,393.587 251.400 C 394.069 249.420,394.629 247.440,394.830 247.000 C 396.144 244.125,398.760 226.812,399.632 215.218 C 400.246 207.064,399.895 184.929,399.033 177.400 C 397.933 167.793,395.719 154.967,394.822 153.000 C 394.622 152.560,393.626 148.960,392.609 145.000 C 391.593 141.040,390.429 137.080,390.024 136.200 C 389.618 135.320,388.430 132.080,387.383 129.000 C 385.506 123.475,384.915 121.992,384.436 121.600 C 384.301 121.490,383.581 119.870,382.835 118.000 C 381.236 113.989,374.002 100.000,373.528 100.000 C 373.347 100.000,373.191 99.775,373.181 99.500 C 373.163 99.038,370.661 94.740,367.800 90.258 C 366.313 87.928,359.526 78.558,358.341 77.200 C 357.862 76.650,356.514 74.912,355.346 73.337 C 354.179 71.763,353.080 70.413,352.905 70.337 C 352.730 70.262,351.884 69.300,351.025 68.200 C 350.167 67.100,348.640 65.377,347.632 64.371 C 346.625 63.365,344.330 61.025,342.534 59.171 C 338.216 54.714,334.238 50.924,331.894 49.032 C 330.845 48.186,329.292 46.842,328.441 46.047 C 325.852 43.623,313.486 34.520,310.200 32.617 C 309.100 31.980,308.020 31.241,307.800 30.974 C 307.580 30.708,306.590 30.042,305.600 29.494 C 302.963 28.036,299.230 25.887,297.400 24.773 C 294.956 23.287,285.394 18.609,281.800 17.143 C 280.040 16.425,278.330 15.620,278.000 15.356 C 277.670 15.091,276.320 14.508,275.000 14.061 C 267.826 11.631,264.073 10.308,263.000 9.830 C 260.960 8.922,258.036 8.075,251.800 6.588 C 248.500 5.801,245.440 4.997,245.000 4.802 C 243.256 4.029,233.249 2.295,224.000 1.163 C 217.341 0.348,191.697 -0.265,185.600 0.245 M300.086 98.200 C 300.023 98.640,299.800 100.440,299.591 102.200 C 299.381 103.960,299.032 106.480,298.816 107.800 C 298.599 109.120,298.143 112.180,297.801 114.600 C 297.459 117.020,297.008 120.126,296.799 121.502 C 296.340 124.517,295.823 127.987,294.994 133.600 C 294.653 135.910,294.201 138.880,293.988 140.200 C 293.776 141.520,293.400 144.130,293.154 146.000 C 292.907 147.870,292.592 150.205,292.453 151.189 L 292.200 152.979 288.400 154.477 C 283.197 156.528,283.563 156.668,282.788 152.339 C 282.577 151.162,282.214 149.300,281.981 148.200 C 281.748 147.100,281.280 144.760,280.941 143.000 C 280.602 141.240,280.168 138.990,279.975 138.000 C 279.782 137.010,279.363 134.850,279.043 133.200 C 277.958 127.599,277.205 123.806,276.778 121.800 C 276.545 120.700,276.197 118.990,276.006 118.000 C 275.816 117.010,275.360 114.670,274.993 112.800 C 273.704 106.217,273.722 105.723,275.264 105.393 C 275.999 105.236,276.780 104.983,277.000 104.830 C 277.220 104.677,278.915 104.037,280.767 103.408 C 282.619 102.779,287.389 101.135,291.367 99.755 C 299.031 97.097,300.275 96.875,300.086 98.200 M239.735 114.900 C 244.226 119.361,246.879 123.104,249.296 128.392 C 250.153 130.266,251.019 132.160,251.220 132.600 C 251.613 133.459,252.020 135.053,253.211 140.400 C 254.657 146.892,253.691 160.680,251.241 168.509 C 251.019 169.219,250.176 171.960,249.367 174.600 C 248.559 177.240,247.670 179.940,247.392 180.600 C 247.114 181.260,246.038 183.870,245.002 186.400 C 243.966 188.930,242.712 191.900,242.214 193.000 C 241.717 194.100,239.286 199.672,236.812 205.383 C 232.883 214.451,231.508 217.602,229.999 221.000 C 229.804 221.440,229.255 222.700,228.780 223.800 C 227.682 226.340,227.120 227.618,225.787 230.600 C 225.197 231.920,224.393 233.810,224.000 234.800 C 223.608 235.790,222.750 237.770,222.094 239.200 C 221.438 240.630,220.174 243.510,219.284 245.600 C 218.395 247.690,217.101 250.660,216.408 252.200 C 214.810 255.755,214.706 255.992,213.169 259.600 C 212.466 261.250,211.398 263.680,210.796 265.000 C 210.194 266.320,209.065 268.930,208.287 270.800 C 207.510 272.670,206.252 275.550,205.492 277.200 C 204.732 278.850,203.835 280.920,203.498 281.800 C 203.161 282.680,202.227 284.840,201.421 286.600 C 200.616 288.360,199.786 290.205,199.578 290.700 C 199.370 291.195,199.030 292.005,198.822 292.500 C 195.783 299.731,194.840 301.590,194.314 301.388 C 194.020 301.276,192.822 298.532,191.650 295.292 C 190.479 292.051,189.291 288.860,189.010 288.200 C 188.730 287.540,187.387 283.940,186.026 280.200 C 184.665 276.460,183.397 273.040,183.209 272.600 C 183.021 272.160,182.110 269.730,181.184 267.200 C 180.258 264.670,179.253 262.033,178.951 261.340 C 178.648 260.646,178.400 259.943,178.400 259.777 C 178.400 259.532,175.280 251.071,173.983 247.800 C 173.809 247.360,172.740 244.480,171.607 241.400 C 170.474 238.320,169.290 235.209,168.974 234.486 C 168.658 233.764,168.400 232.855,168.400 232.466 C 168.400 232.078,168.252 231.589,168.072 231.380 C 167.788 231.051,164.908 223.622,164.216 221.433 C 163.860 220.307,163.235 221.116,162.330 223.873 C 161.716 225.743,158.750 233.796,157.201 237.800 C 157.031 238.240,156.139 240.670,155.219 243.200 C 154.299 245.730,153.397 248.160,153.214 248.600 C 153.032 249.040,152.307 251.020,151.603 253.000 C 150.899 254.980,149.420 259.030,148.315 262.000 C 147.210 264.970,145.408 269.830,144.309 272.800 C 143.210 275.770,142.169 278.560,141.997 279.000 C 141.824 279.440,140.209 283.850,138.409 288.800 C 133.227 303.049,133.356 302.801,132.408 300.315 C 132.132 299.592,131.657 298.433,131.353 297.740 C 131.049 297.046,130.800 296.279,130.800 296.034 C 130.800 295.789,130.629 295.277,130.420 294.895 C 130.210 294.513,129.290 292.130,128.374 289.600 C 127.458 287.070,126.563 284.640,126.386 284.200 C 125.505 282.013,122.321 273.366,121.576 271.135 C 121.111 269.741,120.502 268.060,120.223 267.400 C 119.509 265.706,118.272 262.392,116.790 258.200 C 116.090 256.220,115.367 254.240,115.184 253.800 C 114.871 253.047,113.440 249.186,108.735 236.400 C 107.642 233.430,106.603 230.724,106.425 230.387 C 106.247 230.050,105.966 229.156,105.800 228.400 C 105.634 227.644,105.343 226.750,105.152 226.413 C 104.710 225.629,103.590 222.681,101.348 216.400 C 100.367 213.650,99.398 211.040,99.195 210.600 C 98.993 210.160,98.090 207.730,97.191 205.200 C 96.291 202.670,95.404 200.240,95.220 199.800 C 95.037 199.360,94.132 196.930,93.209 194.400 C 92.287 191.870,91.385 189.440,91.203 189.000 C 91.022 188.560,89.396 184.150,87.589 179.200 C 85.782 174.250,84.055 169.633,83.752 168.940 C 83.448 168.246,83.200 167.427,83.200 167.120 C 83.200 166.812,83.049 166.389,82.865 166.180 C 82.680 165.971,82.038 164.360,81.437 162.600 C 80.837 160.840,80.178 159.087,79.973 158.705 C 79.768 158.323,79.600 157.811,79.600 157.566 C 79.600 157.321,79.348 156.554,79.040 155.860 C 78.434 154.498,75.456 146.557,72.807 139.242 C 70.992 134.231,70.964 134.399,73.800 133.404 C 74.900 133.018,76.367 132.454,77.060 132.151 C 77.754 131.848,78.475 131.600,78.664 131.600 C 78.852 131.600,81.074 130.790,83.600 129.800 C 86.126 128.810,88.348 128.000,88.536 128.000 C 88.725 128.000,89.446 127.748,90.140 127.440 C 94.704 125.410,94.645 125.352,97.809 135.000 C 98.097 135.880,99.087 138.670,100.009 141.200 C 100.931 143.730,102.541 148.230,103.588 151.200 C 104.635 154.170,105.601 156.870,105.735 157.200 C 106.288 158.568,108.514 164.716,108.993 166.200 C 109.278 167.080,110.174 169.600,110.986 171.800 C 112.322 175.419,114.428 181.322,117.982 191.400 C 118.680 193.380,119.397 195.276,119.575 195.613 C 119.753 195.950,120.034 196.844,120.200 197.600 C 120.366 198.356,120.655 199.250,120.842 199.587 C 121.206 200.243,122.583 204.034,128.401 220.400 C 129.536 223.590,130.606 226.476,130.781 226.813 C 130.955 227.150,131.234 228.044,131.400 228.800 C 131.566 229.556,131.859 230.450,132.051 230.787 C 132.434 231.459,134.325 236.600,135.807 241.000 C 136.727 243.732,138.223 247.789,139.201 250.200 L 139.687 251.400 140.119 250.400 C 140.357 249.850,140.861 248.680,141.240 247.800 C 141.619 246.920,142.291 245.112,142.735 243.783 C 143.178 242.454,143.719 240.924,143.935 240.383 C 144.152 239.842,144.732 238.320,145.223 237.000 C 145.715 235.680,146.344 234.060,146.622 233.400 C 146.899 232.740,147.877 230.130,148.793 227.600 C 150.549 222.754,150.735 222.273,151.759 219.940 C 152.112 219.136,152.400 218.279,152.400 218.034 C 152.400 217.789,152.563 217.277,152.763 216.895 C 155.838 211.014,157.979 202.638,156.826 201.000 C 156.671 200.780,155.773 198.440,154.829 195.800 C 153.886 193.160,152.890 190.460,152.616 189.800 C 151.950 188.198,150.812 185.158,148.795 179.600 C 147.878 177.070,146.894 174.460,146.609 173.800 C 146.324 173.140,145.422 170.710,144.603 168.400 C 143.784 166.090,142.863 163.633,142.557 162.940 C 142.251 162.246,142.000 161.427,142.000 161.120 C 142.000 160.812,141.853 160.389,141.672 160.180 C 141.347 159.802,140.627 157.944,137.774 150.110 C 136.106 145.529,136.164 145.182,138.732 144.386 C 139.539 144.136,140.767 143.677,141.460 143.366 C 142.154 143.054,142.921 142.800,143.166 142.800 C 143.411 142.800,143.923 142.637,144.305 142.438 C 144.687 142.239,147.520 141.143,150.600 140.003 C 153.680 138.864,156.859 137.656,157.665 137.320 C 159.860 136.406,159.983 136.562,162.315 143.226 C 164.383 149.134,168.051 159.538,168.511 160.800 C 168.631 161.130,168.912 161.940,169.134 162.600 C 169.357 163.260,169.935 164.880,170.419 166.200 C 171.272 168.527,172.979 173.337,177.375 185.800 C 178.540 189.100,179.595 192.070,179.720 192.400 C 180.248 193.786,182.804 201.154,183.397 203.000 C 183.751 204.100,184.205 205.360,184.406 205.800 C 184.824 206.713,185.827 209.566,187.852 215.600 C 188.628 217.910,189.493 220.340,189.776 221.000 C 190.058 221.660,190.958 224.180,191.776 226.600 C 192.594 229.020,193.414 231.360,193.598 231.800 C 193.783 232.240,194.114 233.140,194.334 233.800 C 194.554 234.460,195.388 236.800,196.188 239.000 C 196.987 241.200,198.272 244.890,199.044 247.200 C 199.816 249.510,200.616 251.760,200.823 252.200 C 201.029 252.640,201.450 253.720,201.759 254.600 L 202.319 256.200 203.602 253.400 C 205.496 249.267,206.206 247.664,207.325 245.000 C 207.879 243.680,208.978 241.226,209.766 239.546 C 210.555 237.867,211.200 236.389,211.200 236.263 C 211.200 236.138,212.117 234.002,213.238 231.517 C 216.306 224.718,216.620 224.009,217.768 221.280 C 218.350 219.893,219.431 217.463,220.169 215.880 C 220.907 214.296,222.259 211.234,223.174 209.076 C 224.089 206.918,225.173 204.488,225.583 203.676 C 226.537 201.788,230.653 190.604,231.646 187.200 C 232.063 185.770,232.566 184.060,232.765 183.400 C 236.113 172.257,235.104 159.571,230.125 150.200 C 226.980 144.282,218.939 134.743,215.356 132.680 C 214.359 132.106,214.499 131.883,218.534 127.600 C 220.303 125.722,225.135 120.521,232.366 112.708 C 234.755 110.128,235.006 110.203,239.735 114.900 M300.000 228.405 L 300.200 279.000 301.306 280.629 C 304.598 285.476,311.305 283.723,316.821 276.573 C 317.743 275.378,318.659 274.400,318.858 274.400 C 319.451 274.400,322.800 277.659,322.800 278.237 C 322.800 279.011,321.511 281.600,321.126 281.600 C 320.947 281.600,320.800 281.794,320.800 282.030 C 320.800 282.267,319.992 283.511,319.004 284.795 C 308.401 298.574,287.998 301.617,280.855 290.486 C 277.165 284.735,277.146 284.419,277.283 231.269 L 277.400 185.938 286.400 182.514 C 291.350 180.632,296.120 178.762,297.000 178.361 C 297.880 177.959,298.870 177.671,299.200 177.720 C 299.728 177.800,299.824 183.842,300.000 228.405 " stroke="none" fill="#ac0404" fill-rule="evenodd"></path><path id="path2" d="M220.175 126.100 L 219.000 127.400 220.300 126.225 C 221.015 125.579,221.600 124.994,221.600 124.925 C 221.600 124.616,221.270 124.888,220.175 126.100 M220.600 137.200 C 221.683 138.300,222.660 139.200,222.770 139.200 C 222.880 139.200,222.083 138.300,221.000 137.200 C 219.917 136.100,218.940 135.200,218.830 135.200 C 218.720 135.200,219.517 136.100,220.600 137.200 M253.740 149.200 C 253.740 151.070,253.809 151.835,253.893 150.900 C 253.977 149.965,253.977 148.435,253.893 147.500 C 253.809 146.565,253.740 147.330,253.740 149.200 M277.393 231.000 C 277.393 255.420,277.441 265.351,277.500 253.069 C 277.559 240.787,277.559 220.807,277.500 208.669 C 277.441 196.531,277.393 206.580,277.393 231.000 M282.800 292.600 C 283.546 293.370,284.247 294.000,284.357 294.000 C 284.467 294.000,283.946 293.370,283.200 292.600 C 282.454 291.830,281.753 291.200,281.643 291.200 C 281.533 291.200,282.054 291.830,282.800 292.600 M296.500 297.076 C 296.885 297.176,297.515 297.176,297.900 297.076 C 298.285 296.975,297.970 296.893,297.200 296.893 C 296.430 296.893,296.115 296.975,296.500 297.076 " stroke="none" fill="#c85b5b" fill-rule="evenodd"></path><path id="path3" d="M298.893 105.600 C 298.893 106.370,298.975 106.685,299.076 106.300 C 299.176 105.915,299.176 105.285,299.076 104.900 C 298.975 104.515,298.893 104.830,298.893 105.600 M232.581 112.500 L 231.000 114.200 232.617 112.700 C 234.328 111.112,235.089 110.887,236.001 111.700 C 236.478 112.125,236.482 112.096,236.032 111.500 C 235.200 110.400,234.288 110.665,232.581 112.500 M237.200 112.510 C 237.200 112.571,238.595 113.966,240.300 115.610 L 243.400 118.600 240.410 115.500 C 237.633 112.621,237.200 112.217,237.200 112.510 M227.785 117.700 L 225.800 119.800 227.900 117.815 C 229.851 115.971,230.183 115.600,229.885 115.600 C 229.822 115.600,228.877 116.545,227.785 117.700 M296.893 119.200 C 296.893 119.970,296.975 120.285,297.076 119.900 C 297.176 119.515,297.176 118.885,297.076 118.500 C 296.975 118.115,296.893 118.430,296.893 119.200 M222.181 123.700 L 220.600 125.400 222.300 123.819 C 223.881 122.348,224.184 122.000,223.881 122.000 C 223.816 122.000,223.051 122.765,222.181 123.700 M276.856 122.400 C 276.856 122.730,277.011 123.360,277.200 123.800 C 277.417 124.304,277.544 124.378,277.544 124.000 C 277.544 123.670,277.389 123.040,277.200 122.600 C 276.983 122.096,276.856 122.022,276.856 122.400 M217.381 128.900 L 215.800 130.600 217.500 129.019 C 219.081 127.548,219.384 127.200,219.081 127.200 C 219.016 127.200,218.251 127.965,217.381 128.900 M295.069 130.756 C 294.921 131.495,294.820 132.483,294.844 132.950 C 294.868 133.417,295.047 132.990,295.242 132.000 C 295.437 131.010,295.538 130.023,295.467 129.806 C 295.396 129.590,295.217 130.017,295.069 130.756 M97.029 133.600 C 97.176 134.150,97.464 134.870,97.667 135.200 C 97.925 135.617,97.957 135.495,97.771 134.800 C 97.624 134.250,97.336 133.530,97.133 133.200 C 96.875 132.783,96.843 132.905,97.029 133.600 M217.800 134.800 C 218.659 135.680,219.452 136.400,219.562 136.400 C 219.672 136.400,219.059 135.680,218.200 134.800 C 217.341 133.920,216.548 133.200,216.438 133.200 C 216.328 133.200,216.941 133.920,217.800 134.800 M158.000 137.210 C 157.552 137.519,157.690 137.557,158.543 137.358 C 159.314 137.178,159.812 137.272,160.073 137.646 C 160.394 138.104,160.433 138.096,160.299 137.600 C 160.101 136.865,158.815 136.647,158.000 137.210 M222.400 139.400 C 223.146 140.170,223.847 140.800,223.957 140.800 C 224.067 140.800,223.546 140.170,222.800 139.400 C 222.054 138.630,221.353 138.000,221.243 138.000 C 221.133 138.000,221.654 138.630,222.400 139.400 M253.701 144.600 C 253.705 145.480,253.787 145.793,253.883 145.295 C 253.979 144.798,253.975 144.078,253.875 143.695 C 253.775 143.313,253.696 143.720,253.701 144.600 M75.429 146.400 C 75.576 146.950,75.864 147.670,76.067 148.000 C 76.325 148.417,76.357 148.295,76.171 147.600 C 76.024 147.050,75.736 146.330,75.533 146.000 C 75.275 145.583,75.243 145.705,75.429 146.400 M292.893 146.800 C 292.893 147.570,292.975 147.885,293.076 147.500 C 293.176 147.115,293.176 146.485,293.076 146.100 C 292.975 145.715,292.893 146.030,292.893 146.800 M253.693 153.600 C 253.693 154.370,253.775 154.685,253.876 154.300 C 253.976 153.915,253.976 153.285,253.876 152.900 C 253.775 152.515,253.693 152.830,253.693 153.600 M282.868 152.800 C 282.888 153.839,283.518 155.546,283.532 154.600 C 283.538 154.160,283.389 153.440,283.200 153.000 C 282.989 152.510,282.861 152.432,282.868 152.800 M253.293 156.400 C 253.293 157.170,253.375 157.485,253.476 157.100 C 253.576 156.715,253.576 156.085,253.476 155.700 C 253.375 155.315,253.293 155.630,253.293 156.400 M234.944 169.600 C 234.944 171.690,235.012 172.545,235.094 171.500 C 235.176 170.455,235.176 168.745,235.094 167.700 C 235.012 166.655,234.944 167.510,234.944 169.600 M146.218 172.900 C 146.368 173.395,146.655 173.976,146.856 174.191 C 147.057 174.406,147.019 174.001,146.772 173.291 C 146.265 171.838,145.797 171.508,146.218 172.900 M298.898 177.852 C 299.557 178.046,299.603 180.839,299.701 227.229 L 299.805 276.400 299.802 227.105 C 299.800 178.106,299.795 177.810,299.000 177.728 C 298.381 177.665,298.358 177.693,298.898 177.852 M247.267 179.980 C 247.033 180.651,246.927 181.200,247.031 181.200 C 247.301 181.200,248.056 179.122,247.857 178.924 C 247.767 178.833,247.501 179.308,247.267 179.980 M157.444 203.000 C 157.773 204.471,158.002 204.790,157.994 203.767 C 157.991 203.345,157.805 202.730,157.582 202.400 C 157.285 201.962,157.248 202.124,157.444 203.000 M184.467 206.820 C 184.701 207.492,184.967 207.967,185.057 207.876 C 185.256 207.678,184.501 205.600,184.231 205.600 C 184.127 205.600,184.233 206.149,184.467 206.820 M123.429 207.200 C 123.576 207.750,123.864 208.470,124.067 208.800 C 124.325 209.217,124.357 209.095,124.171 208.400 C 124.024 207.850,123.736 207.130,123.533 206.800 C 123.275 206.383,123.243 206.505,123.429 207.200 M98.618 209.300 C 98.768 209.795,99.055 210.376,99.256 210.591 C 99.457 210.806,99.419 210.401,99.172 209.691 C 98.665 208.238,98.197 207.908,98.618 209.300 M102.629 220.000 C 102.776 220.550,103.064 221.270,103.267 221.600 C 103.525 222.017,103.557 221.895,103.371 221.200 C 103.224 220.650,102.936 219.930,102.733 219.600 C 102.475 219.183,102.443 219.305,102.629 220.000 M164.629 222.800 C 164.776 223.350,165.064 224.070,165.267 224.400 C 165.525 224.817,165.557 224.695,165.371 224.000 C 165.224 223.450,164.936 222.730,164.733 222.400 C 164.475 221.983,164.443 222.105,164.629 222.800 M212.865 232.217 C 212.195 233.688,212.323 234.002,213.047 232.665 C 213.386 232.040,213.588 231.454,213.496 231.363 C 213.405 231.271,213.121 231.656,212.865 232.217 M138.802 250.024 C 138.801 250.366,139.064 250.996,139.387 251.424 C 140.151 252.434,140.159 251.996,139.402 250.546 C 139.074 249.916,138.804 249.681,138.802 250.024 M213.265 258.617 C 212.595 260.088,212.723 260.402,213.447 259.065 C 213.786 258.440,213.988 257.854,213.896 257.763 C 213.805 257.671,213.521 258.056,213.265 258.617 M123.029 275.200 C 123.176 275.750,123.464 276.470,123.667 276.800 C 123.925 277.217,123.957 277.095,123.771 276.400 C 123.624 275.850,123.336 275.130,123.133 274.800 C 122.875 274.383,122.843 274.505,123.029 275.200 M321.000 276.400 C 321.859 277.280,322.652 278.000,322.762 278.000 C 322.872 278.000,322.259 277.280,321.400 276.400 C 320.541 275.520,319.748 274.800,319.638 274.800 C 319.528 274.800,320.141 275.520,321.000 276.400 M277.314 277.000 C 277.317 278.100,277.395 278.503,277.487 277.895 C 277.579 277.286,277.577 276.386,277.482 275.895 C 277.387 275.403,277.311 275.900,277.314 277.000 M310.200 282.231 C 309.320 282.757,308.780 283.189,309.000 283.192 C 309.481 283.198,312.000 281.698,312.000 281.406 C 312.000 281.144,312.083 281.107,310.200 282.231 M315.787 288.100 L 313.400 290.600 315.900 288.213 C 317.275 286.899,318.400 285.774,318.400 285.713 C 318.400 285.417,318.005 285.778,315.787 288.100 M299.200 296.800 C 298.408 297.054,298.367 297.120,299.000 297.120 C 299.440 297.120,300.250 296.976,300.800 296.800 C 301.592 296.546,301.633 296.480,301.000 296.480 C 300.560 296.480,299.750 296.624,299.200 296.800 M134.000 299.905 C 134.000 300.146,133.717 300.626,133.371 300.971 C 133.026 301.317,132.929 301.600,133.157 301.600 C 133.664 301.600,134.556 300.023,134.232 299.699 C 134.105 299.571,134.000 299.664,134.000 299.905 " stroke="none" fill="#bc3c3c" fill-rule="evenodd"></path><path id="path4" d="M298.756 97.965 C 299.181 98.233,299.255 98.921,299.072 100.858 C 298.775 103.988,299.070 103.500,299.530 100.100 C 299.851 97.724,299.826 97.600,299.034 97.606 C 298.398 97.611,298.332 97.696,298.756 97.965 M293.800 99.414 C 292.800 99.896,292.766 99.951,293.600 99.748 C 294.733 99.471,296.007 98.821,295.400 98.830 C 295.180 98.833,294.460 99.096,293.800 99.414 M290.200 100.614 C 289.200 101.096,289.166 101.151,290.000 100.948 C 291.133 100.671,292.407 100.021,291.800 100.030 C 291.580 100.033,290.860 100.296,290.200 100.614 M282.000 103.400 C 281.230 103.697,280.870 103.945,281.200 103.952 C 281.530 103.958,282.340 103.717,283.000 103.414 C 284.545 102.707,283.826 102.697,282.000 103.400 M298.282 105.950 C 298.127 106.692,298.020 107.772,298.044 108.350 C 298.073 109.042,298.210 108.787,298.447 107.600 C 298.645 106.610,298.752 105.530,298.685 105.200 C 298.619 104.870,298.438 105.208,298.282 105.950 M274.887 110.000 C 274.883 110.550,275.024 111.450,275.200 112.000 C 275.631 113.344,275.631 111.892,275.200 110.200 C 274.926 109.122,274.894 109.102,274.887 110.000 M230.232 115.500 C 228.068 117.865,224.140 122.095,221.503 124.900 C 218.867 127.705,216.809 130.000,216.930 130.000 C 217.051 130.000,220.975 125.905,225.649 120.900 C 230.322 115.895,234.366 111.745,234.634 111.678 C 235.111 111.559,236.316 112.474,240.029 115.774 C 241.035 116.669,240.411 116.005,238.644 114.300 C 234.616 110.414,234.927 110.370,230.232 115.500 M297.046 114.646 C 296.900 115.893,296.859 116.993,296.957 117.090 C 297.054 117.188,297.261 116.254,297.415 115.015 C 297.570 113.777,297.610 112.677,297.505 112.571 C 297.399 112.466,297.193 113.399,297.046 114.646 M275.680 114.200 C 275.680 114.640,275.824 115.450,276.000 116.000 C 276.254 116.792,276.320 116.833,276.320 116.200 C 276.320 115.760,276.176 114.950,276.000 114.400 C 275.746 113.608,275.680 113.567,275.680 114.200 M276.487 118.200 C 276.491 118.640,276.632 119.540,276.800 120.200 C 277.074 121.278,277.106 121.298,277.113 120.400 C 277.117 119.850,276.976 118.950,276.800 118.400 C 276.549 117.616,276.481 117.573,276.487 118.200 M243.786 120.427 C 245.893 123.217,246.730 124.184,246.185 123.200 C 245.521 122.003,242.806 118.451,242.330 118.157 C 242.061 117.991,242.716 119.013,243.786 120.427 M296.215 120.215 C 296.061 121.454,296.017 122.550,296.119 122.652 C 296.220 122.754,296.430 121.823,296.585 120.585 C 296.739 119.346,296.783 118.250,296.681 118.148 C 296.580 118.046,296.370 118.977,296.215 120.215 M277.687 124.000 C 277.683 124.550,277.824 125.450,278.000 126.000 C 278.431 127.344,278.431 125.892,278.000 124.200 C 277.726 123.122,277.694 123.102,277.687 124.000 M247.200 125.600 C 247.649 126.480,248.106 127.200,248.216 127.200 C 248.326 127.200,248.049 126.480,247.600 125.600 C 247.151 124.720,246.694 124.000,246.584 124.000 C 246.474 124.000,246.751 124.720,247.200 125.600 M295.046 128.246 C 294.900 129.493,294.859 130.593,294.957 130.690 C 295.054 130.788,295.261 129.854,295.415 128.615 C 295.570 127.377,295.610 126.277,295.505 126.171 C 295.399 126.066,295.193 126.999,295.046 128.246 M90.200 127.814 C 89.200 128.296,89.166 128.351,90.000 128.148 C 91.133 127.871,92.407 127.221,91.800 127.230 C 91.580 127.233,90.860 127.496,90.200 127.814 M278.662 129.400 C 278.796 130.280,278.972 131.075,279.053 131.167 C 279.356 131.510,279.129 129.368,278.781 128.600 C 278.529 128.042,278.493 128.285,278.662 129.400 M85.688 129.299 C 84.526 129.745,83.640 130.173,83.718 130.252 C 83.892 130.425,88.800 128.794,88.800 128.563 C 88.800 128.254,87.794 128.492,85.688 129.299 M95.429 130.400 C 95.576 130.950,95.864 131.670,96.067 132.000 C 96.325 132.417,96.357 132.295,96.171 131.600 C 96.024 131.050,95.736 130.330,95.533 130.000 C 95.275 129.583,95.243 129.705,95.429 130.400 M250.039 131.700 C 250.915 133.923,251.502 134.858,251.002 133.235 C 250.525 131.687,249.606 129.600,249.400 129.600 C 249.297 129.600,249.584 130.545,250.039 131.700 M219.425 135.823 C 223.684 140.035,226.432 143.321,228.357 146.500 C 228.857 147.325,229.355 148.000,229.465 148.000 C 230.804 148.000,222.605 138.050,217.900 133.964 C 215.722 132.073,216.102 132.537,219.425 135.823 M294.253 133.636 C 294.114 134.331,294.021 135.373,294.047 135.950 C 294.072 136.528,294.255 136.027,294.452 134.839 C 294.837 132.521,294.673 131.534,294.253 133.636 M73.800 133.814 C 72.800 134.296,72.766 134.351,73.600 134.148 C 74.733 133.871,76.007 133.221,75.400 133.230 C 75.180 133.233,74.460 133.496,73.800 133.814 M279.668 134.600 C 279.674 135.040,279.824 135.850,280.000 136.400 L 280.320 137.400 280.332 136.400 C 280.338 135.850,280.189 135.040,280.000 134.600 L 279.656 133.800 279.668 134.600 M251.444 135.600 C 251.580 136.370,251.854 137.270,252.051 137.600 C 252.477 138.310,252.068 136.237,251.539 135.000 C 251.308 134.460,251.277 134.656,251.444 135.600 M97.429 136.000 C 97.576 136.550,97.864 137.270,98.067 137.600 C 98.325 138.017,98.357 137.895,98.171 137.200 C 98.024 136.650,97.736 135.930,97.533 135.600 C 97.275 135.183,97.243 135.305,97.429 136.000 M159.083 137.519 C 159.348 137.688,159.836 138.450,160.167 139.213 C 160.498 139.976,160.776 140.366,160.784 140.080 C 160.810 139.224,159.616 137.200,159.090 137.206 C 158.709 137.211,158.708 137.281,159.083 137.519 M155.800 138.429 C 154.920 138.852,154.650 139.086,155.200 138.950 C 156.705 138.575,158.684 137.666,158.000 137.662 C 157.670 137.661,156.680 138.006,155.800 138.429 M280.674 139.392 C 280.808 140.488,281.065 141.838,281.245 142.392 C 281.450 143.026,281.480 142.660,281.326 141.408 C 281.192 140.312,280.935 138.962,280.755 138.408 C 280.550 137.774,280.520 138.140,280.674 139.392 M73.029 138.800 C 73.176 139.350,73.464 140.070,73.667 140.400 C 73.925 140.817,73.957 140.695,73.771 140.000 C 73.624 139.450,73.336 138.730,73.133 138.400 C 72.875 137.983,72.843 138.105,73.029 138.800 M152.200 139.814 C 151.200 140.296,151.166 140.351,152.000 140.148 C 153.133 139.871,154.407 139.221,153.800 139.230 C 153.580 139.233,152.860 139.496,152.200 139.814 M252.480 139.800 C 252.480 140.240,252.624 141.050,252.800 141.600 C 253.054 142.392,253.120 142.433,253.120 141.800 C 253.120 141.360,252.976 140.550,252.800 140.000 C 252.546 139.208,252.480 139.167,252.480 139.800 M293.046 141.846 C 292.900 143.093,292.859 144.193,292.957 144.290 C 293.054 144.388,293.261 143.454,293.415 142.215 C 293.570 140.977,293.610 139.877,293.505 139.771 C 293.399 139.666,293.193 140.599,293.046 141.846 M149.000 141.014 C 148.000 141.496,147.966 141.551,148.800 141.348 C 149.933 141.071,151.207 140.421,150.600 140.430 C 150.380 140.433,149.660 140.696,149.000 141.014 M74.258 141.998 C 74.400 142.547,74.850 143.717,75.259 144.598 C 75.667 145.479,75.885 145.751,75.742 145.202 C 75.600 144.653,75.150 143.483,74.741 142.602 C 74.333 141.721,74.115 141.449,74.258 141.998 M161.429 142.800 C 161.576 143.350,161.864 144.070,162.067 144.400 C 162.325 144.817,162.357 144.695,162.171 144.000 C 162.024 143.450,161.736 142.730,161.533 142.400 C 161.275 141.983,161.243 142.105,161.429 142.800 M141.400 143.814 C 140.400 144.296,140.366 144.351,141.200 144.148 C 142.333 143.871,143.607 143.221,143.000 143.230 C 142.780 143.233,142.060 143.496,141.400 143.814 M253.320 145.600 C 253.320 146.810,253.395 147.305,253.487 146.700 C 253.578 146.095,253.578 145.105,253.487 144.500 C 253.395 143.895,253.320 144.390,253.320 145.600 M281.680 144.600 C 281.680 145.040,281.824 145.850,282.000 146.400 C 282.254 147.192,282.320 147.233,282.320 146.600 C 282.320 146.160,282.176 145.350,282.000 144.800 C 281.746 144.008,281.680 143.967,281.680 144.600 M138.100 144.996 C 137.385 145.307,136.800 145.651,136.800 145.760 C 136.800 145.952,139.628 144.878,139.967 144.558 C 140.316 144.227,139.347 144.454,138.100 144.996 M292.185 147.785 C 292.030 149.023,291.990 150.123,292.095 150.229 C 292.201 150.334,292.407 149.401,292.554 148.154 C 292.700 146.907,292.741 145.807,292.643 145.710 C 292.546 145.612,292.339 146.546,292.185 147.785 M163.429 148.400 C 163.576 148.950,163.864 149.670,164.067 150.000 C 164.325 150.417,164.357 150.295,164.171 149.600 C 164.024 149.050,163.736 148.330,163.533 148.000 C 163.275 147.583,163.243 147.705,163.429 148.400 M137.829 149.200 C 137.976 149.750,138.264 150.470,138.467 150.800 C 138.725 151.217,138.757 151.095,138.571 150.400 C 138.424 149.850,138.136 149.130,137.933 148.800 C 137.675 148.383,137.643 148.505,137.829 149.200 M230.682 150.589 C 231.273 151.793,231.823 152.711,231.905 152.629 C 232.084 152.449,230.067 148.400,229.798 148.400 C 229.694 148.400,230.092 149.385,230.682 150.589 M77.029 149.600 C 77.176 150.150,77.464 150.870,77.667 151.200 C 77.925 151.617,77.957 151.495,77.771 150.800 C 77.624 150.250,77.336 149.530,77.133 149.200 C 76.875 148.783,76.843 148.905,77.029 149.600 M102.629 150.400 C 102.776 150.950,103.064 151.670,103.267 152.000 C 103.525 152.417,103.557 152.295,103.371 151.600 C 103.224 151.050,102.936 150.330,102.733 150.000 C 102.475 149.583,102.443 149.705,102.629 150.400 M253.324 152.200 C 253.326 153.520,253.401 154.012,253.490 153.293 C 253.579 152.574,253.577 151.494,253.486 150.893 C 253.395 150.292,253.322 150.880,253.324 152.200 M291.600 151.616 C 291.600 152.192,291.098 152.656,289.900 153.188 C 287.812 154.116,288.180 154.242,290.392 153.357 C 291.772 152.804,292.876 150.800,291.800 150.800 C 291.690 150.800,291.600 151.167,291.600 151.616 M139.058 152.398 C 139.200 152.947,139.650 154.117,140.059 154.998 C 140.467 155.879,140.685 156.151,140.542 155.602 C 140.400 155.053,139.950 153.883,139.541 153.002 C 139.133 152.121,138.915 151.849,139.058 152.398 M78.229 152.800 C 78.376 153.350,78.664 154.070,78.867 154.400 C 79.125 154.817,79.157 154.695,78.971 154.000 C 78.824 153.450,78.536 152.730,78.333 152.400 C 78.075 151.983,78.043 152.105,78.229 152.800 M165.299 153.700 C 165.400 153.975,165.798 155.157,166.182 156.326 C 166.567 157.495,166.952 158.381,167.038 158.295 C 167.241 158.093,165.592 153.200,165.320 153.200 C 165.207 153.200,165.197 153.425,165.299 153.700 M285.860 154.679 C 284.552 155.221,284.266 155.233,283.966 154.759 C 283.702 154.341,283.611 154.330,283.606 154.713 C 283.595 155.607,284.599 155.654,286.427 154.843 C 288.544 153.904,288.065 153.766,285.860 154.679 M104.629 156.000 C 104.776 156.550,105.064 157.270,105.267 157.600 C 105.525 158.017,105.557 157.895,105.371 157.200 C 105.224 156.650,104.936 155.930,104.733 155.600 C 104.475 155.183,104.443 155.305,104.629 156.000 M232.863 155.400 C 232.862 155.620,233.103 156.430,233.400 157.200 C 233.697 157.970,233.945 158.330,233.952 158.000 C 233.958 157.670,233.717 156.860,233.414 156.200 C 233.112 155.540,232.864 155.180,232.863 155.400 M252.633 158.033 C 252.483 159.166,252.441 160.174,252.539 160.272 C 252.637 160.371,252.845 159.528,253.000 158.400 C 253.155 157.272,253.198 156.264,253.094 156.161 C 252.991 156.058,252.784 156.900,252.633 158.033 M140.812 157.200 C 140.812 157.530,140.987 158.070,141.200 158.400 C 141.545 158.933,141.588 158.933,141.588 158.400 C 141.588 158.070,141.413 157.530,141.200 157.200 C 140.855 156.667,140.812 156.667,140.812 157.200 M234.080 159.400 C 234.080 159.840,234.224 160.650,234.400 161.200 C 234.654 161.992,234.720 162.033,234.720 161.400 C 234.720 160.960,234.576 160.150,234.400 159.600 C 234.146 158.808,234.080 158.767,234.080 159.400 M81.029 160.400 C 81.176 160.950,81.464 161.670,81.667 162.000 C 81.925 162.417,81.957 162.295,81.771 161.600 C 81.624 161.050,81.336 160.330,81.133 160.000 C 80.875 159.583,80.843 159.705,81.029 160.400 M106.629 161.600 C 106.776 162.150,107.064 162.870,107.267 163.200 C 107.525 163.617,107.557 163.495,107.371 162.800 C 107.224 162.250,106.936 161.530,106.733 161.200 C 106.475 160.783,106.443 160.905,106.629 161.600 M251.631 163.631 C 251.385 164.778,251.260 165.793,251.353 165.886 C 251.446 165.979,251.723 165.117,251.969 163.969 C 252.215 162.822,252.340 161.807,252.247 161.714 C 252.154 161.621,251.877 162.483,251.631 163.631 M143.058 163.198 C 143.200 163.747,143.650 164.917,144.059 165.798 C 144.467 166.679,144.685 166.951,144.542 166.402 C 144.400 165.853,143.950 164.683,143.541 163.802 C 143.133 162.921,142.915 162.649,143.058 163.198 M82.229 163.600 C 82.376 164.150,82.664 164.870,82.867 165.200 C 83.125 165.617,83.157 165.495,82.971 164.800 C 82.824 164.250,82.536 163.530,82.333 163.200 C 82.075 162.783,82.043 162.905,82.229 163.600 M235.284 168.844 C 235.238 170.958,235.115 173.568,235.011 174.644 L 234.822 176.600 235.225 174.671 C 235.447 173.610,235.570 171.000,235.498 168.871 L 235.367 165.000 235.284 168.844 M108.629 167.200 C 108.776 167.750,109.064 168.470,109.267 168.800 C 109.525 169.217,109.557 169.095,109.371 168.400 C 109.224 167.850,108.936 167.130,108.733 166.800 C 108.475 166.383,108.443 166.505,108.629 167.200 M145.029 168.400 C 145.176 168.950,145.464 169.670,145.667 170.000 C 145.925 170.417,145.957 170.295,145.771 169.600 C 145.624 169.050,145.336 168.330,145.133 168.000 C 144.875 167.583,144.843 167.705,145.029 168.400 M170.629 168.800 C 170.776 169.350,171.064 170.070,171.267 170.400 C 171.525 170.817,171.557 170.695,171.371 170.000 C 171.224 169.450,170.936 168.730,170.733 168.400 C 170.475 167.983,170.443 168.105,170.629 168.800 M249.673 171.273 C 249.435 172.209,249.310 173.043,249.394 173.127 C 249.478 173.212,249.751 172.524,250.000 171.600 C 250.249 170.676,250.374 169.841,250.279 169.745 C 250.183 169.650,249.910 170.337,249.673 171.273 M110.629 172.800 C 110.776 173.350,111.064 174.070,111.267 174.400 C 111.525 174.817,111.557 174.695,111.371 174.000 C 111.224 173.450,110.936 172.730,110.733 172.400 C 110.475 171.983,110.443 172.105,110.629 172.800 M86.229 174.400 C 86.376 174.950,86.664 175.670,86.867 176.000 C 87.125 176.417,87.157 176.295,86.971 175.600 C 86.824 175.050,86.536 174.330,86.333 174.000 C 86.075 173.583,86.043 173.705,86.229 174.400 M248.629 174.629 C 248.481 175.215,248.438 175.772,248.532 175.866 C 248.627 175.960,248.824 175.558,248.971 174.971 C 249.119 174.385,249.162 173.828,249.068 173.734 C 248.973 173.640,248.776 174.042,248.629 174.629 M247.644 177.644 C 247.398 178.351,247.266 179.000,247.352 179.085 C 247.438 179.171,247.709 178.662,247.956 177.956 C 248.202 177.249,248.334 176.600,248.248 176.515 C 248.162 176.429,247.891 176.938,247.644 177.644 M234.222 178.622 C 234.072 179.425,234.028 180.162,234.126 180.260 C 234.224 180.357,234.427 179.781,234.578 178.978 C 234.728 178.175,234.772 177.438,234.674 177.340 C 234.576 177.243,234.373 177.819,234.222 178.622 M112.629 178.400 C 112.776 178.950,113.064 179.670,113.267 180.000 C 113.525 180.417,113.557 180.295,113.371 179.600 C 113.224 179.050,112.936 178.330,112.733 178.000 C 112.475 177.583,112.443 177.705,112.629 178.400 M296.491 178.883 C 295.330 179.340,294.452 179.785,294.539 179.872 C 294.625 179.958,295.626 179.663,296.763 179.215 C 297.900 178.767,298.912 178.400,299.013 178.400 C 299.114 178.400,299.243 200.585,299.300 227.700 L 299.403 277.000 299.502 227.500 C 299.580 188.103,299.498 178.005,299.100 178.026 C 298.825 178.040,297.651 178.426,296.491 178.883 M149.029 179.200 C 149.176 179.750,149.464 180.470,149.667 180.800 C 149.925 181.217,149.957 181.095,149.771 180.400 C 149.624 179.850,149.336 179.130,149.133 178.800 C 148.875 178.383,148.843 178.505,149.029 179.200 M290.200 181.414 C 289.200 181.896,289.166 181.951,290.000 181.748 C 291.133 181.471,292.407 180.821,291.800 180.830 C 291.580 180.833,290.860 181.096,290.200 181.414 M175.429 182.400 C 175.576 182.950,175.864 183.670,176.067 184.000 C 176.325 184.417,176.357 184.295,176.171 183.600 C 176.024 183.050,175.736 182.330,175.533 182.000 C 175.275 181.583,175.243 181.705,175.429 182.400 M245.253 184.053 C 244.780 185.193,244.459 186.193,244.542 186.275 C 244.624 186.357,245.088 185.501,245.573 184.373 C 246.059 183.245,246.379 182.246,246.285 182.152 C 246.191 182.058,245.727 182.914,245.253 184.053 M233.050 183.650 C 232.717 185.317,233.040 185.640,233.400 184.000 C 233.552 183.309,233.593 182.659,233.491 182.558 C 233.389 182.456,233.191 182.947,233.050 183.650 M285.000 183.414 C 284.000 183.896,283.966 183.951,284.800 183.748 C 285.933 183.471,287.207 182.821,286.600 182.830 C 286.380 182.833,285.660 183.096,285.000 183.414 M114.629 184.000 C 114.776 184.550,115.064 185.270,115.267 185.600 C 115.525 186.017,115.557 185.895,115.371 185.200 C 115.224 184.650,114.936 183.930,114.733 183.600 C 114.475 183.183,114.443 183.305,114.629 184.000 M281.800 184.614 C 280.800 185.096,280.766 185.151,281.600 184.948 C 282.733 184.671,284.007 184.021,283.400 184.030 C 283.180 184.033,282.460 184.296,281.800 184.614 M90.229 185.200 C 90.376 185.750,90.664 186.470,90.867 186.800 C 91.125 187.217,91.157 187.095,90.971 186.400 C 90.824 185.850,90.536 185.130,90.333 184.800 C 90.075 184.383,90.043 184.505,90.229 185.200 M243.665 187.817 C 242.995 189.288,243.123 189.602,243.847 188.265 C 244.186 187.640,244.388 187.054,244.296 186.963 C 244.205 186.871,243.921 187.256,243.665 187.817 M177.429 188.000 C 177.576 188.550,177.864 189.270,178.067 189.600 C 178.325 190.017,178.357 189.895,178.171 189.200 C 178.024 188.650,177.736 187.930,177.533 187.600 C 177.275 187.183,177.243 187.305,177.429 188.000 M91.299 188.100 C 91.400 188.375,91.798 189.557,92.182 190.726 C 92.567 191.895,92.952 192.781,93.038 192.695 C 93.241 192.493,91.592 187.600,91.320 187.600 C 91.207 187.600,91.197 187.825,91.299 188.100 M178.412 190.800 C 178.412 191.130,178.587 191.670,178.800 192.000 C 179.145 192.533,179.188 192.533,179.188 192.000 C 179.188 191.670,179.013 191.130,178.800 190.800 C 178.455 190.267,178.412 190.267,178.412 190.800 M230.200 192.400 C 230.050 192.873,230.017 193.350,230.127 193.460 C 230.237 193.570,230.450 193.273,230.600 192.800 C 230.750 192.327,230.783 191.850,230.673 191.740 C 230.563 191.630,230.350 191.927,230.200 192.400 M117.699 192.500 C 117.800 192.775,118.198 193.957,118.582 195.126 C 118.967 196.295,119.352 197.181,119.438 197.095 C 119.641 196.893,117.992 192.000,117.720 192.000 C 117.607 192.000,117.597 192.225,117.699 192.500 M179.454 193.600 C 179.589 194.150,179.945 195.140,180.245 195.800 C 180.684 196.764,180.743 196.803,180.546 196.000 C 180.411 195.450,180.055 194.460,179.755 193.800 C 179.316 192.836,179.257 192.797,179.454 193.600 M229.244 195.244 C 228.998 195.951,228.866 196.600,228.952 196.685 C 229.038 196.771,229.309 196.262,229.556 195.556 C 229.802 194.849,229.934 194.200,229.848 194.115 C 229.762 194.029,229.491 194.538,229.244 195.244 M155.029 195.200 C 155.176 195.750,155.464 196.470,155.667 196.800 C 155.925 197.217,155.957 197.095,155.771 196.400 C 155.624 195.850,155.336 195.130,155.133 194.800 C 154.875 194.383,154.843 194.505,155.029 195.200 M240.019 196.251 C 239.151 198.213,238.950 199.070,239.634 197.896 C 240.282 196.783,241.230 194.400,241.024 194.400 C 240.921 194.400,240.469 195.233,240.019 196.251 M119.829 198.400 C 119.976 198.950,120.264 199.670,120.467 200.000 C 120.725 200.417,120.757 200.295,120.571 199.600 C 120.424 199.050,120.136 198.330,119.933 198.000 C 119.675 197.583,119.643 197.705,119.829 198.400 M95.200 198.536 C 95.200 199.069,98.898 208.835,99.044 208.689 C 99.191 208.542,95.679 198.759,95.362 198.433 C 95.273 198.342,95.200 198.388,95.200 198.536 M238.054 200.762 C 236.875 203.503,237.019 203.899,238.228 201.238 C 238.768 200.049,239.142 199.008,239.059 198.926 C 238.977 198.843,238.524 199.670,238.054 200.762 M227.244 200.444 C 226.998 201.151,226.866 201.800,226.952 201.885 C 227.038 201.971,227.309 201.462,227.556 200.756 C 227.802 200.049,227.934 199.400,227.848 199.315 C 227.762 199.229,227.491 199.738,227.244 200.444 M120.812 201.200 C 120.812 201.530,120.987 202.070,121.200 202.400 C 121.545 202.933,121.588 202.933,121.588 202.400 C 121.588 202.070,121.413 201.530,121.200 201.200 C 120.855 200.667,120.812 200.667,120.812 201.200 M226.286 202.883 C 226.169 203.167,225.784 204.075,225.431 204.900 C 225.078 205.725,224.873 206.400,224.976 206.400 C 225.243 206.400,226.841 202.708,226.654 202.521 C 226.569 202.435,226.403 202.598,226.286 202.883 M121.829 204.000 C 121.976 204.550,122.264 205.270,122.467 205.600 C 122.725 206.017,122.757 205.895,122.571 205.200 C 122.424 204.650,122.136 203.930,121.933 203.600 C 121.675 203.183,121.643 203.305,121.829 204.000 M157.244 206.044 C 156.998 206.751,156.866 207.400,156.952 207.485 C 157.038 207.571,157.309 207.062,157.556 206.356 C 157.802 205.649,157.934 205.000,157.848 204.915 C 157.762 204.829,157.491 205.338,157.244 206.044 M122.812 206.800 C 122.812 207.130,122.987 207.670,123.200 208.000 C 123.545 208.533,123.588 208.533,123.588 208.000 C 123.588 207.670,123.413 207.130,123.200 206.800 C 122.855 206.267,122.812 206.267,122.812 206.800 M184.629 208.400 C 184.776 208.950,185.064 209.670,185.267 210.000 C 185.525 210.417,185.557 210.295,185.371 209.600 C 185.224 209.050,184.936 208.330,184.733 208.000 C 184.475 207.583,184.443 207.705,184.629 208.400 M234.465 209.017 C 233.795 210.488,233.923 210.802,234.647 209.465 C 234.986 208.840,235.188 208.254,235.096 208.163 C 235.005 208.071,234.721 208.456,234.465 209.017 M123.829 209.600 C 123.976 210.150,124.264 210.870,124.467 211.200 C 124.725 211.617,124.757 211.495,124.571 210.800 C 124.424 210.250,124.136 209.530,123.933 209.200 C 123.675 208.783,123.643 208.905,123.829 209.600 M222.672 211.019 C 221.732 212.989,221.864 213.324,222.847 211.462 C 223.293 210.616,223.587 209.854,223.501 209.767 C 223.414 209.681,223.041 210.244,222.672 211.019 M155.244 211.244 C 154.998 211.951,154.866 212.600,154.952 212.685 C 155.038 212.771,155.309 212.262,155.556 211.556 C 155.802 210.849,155.934 210.200,155.848 210.115 C 155.762 210.029,155.491 210.538,155.244 211.244 M185.612 211.200 C 185.612 211.530,185.787 212.070,186.000 212.400 C 186.345 212.933,186.388 212.933,186.388 212.400 C 186.388 212.070,186.213 211.530,186.000 211.200 C 185.655 210.667,185.612 210.667,185.612 211.200 M233.486 211.283 C 233.369 211.567,232.984 212.475,232.631 213.300 C 232.278 214.125,232.073 214.800,232.176 214.800 C 232.443 214.800,234.041 211.108,233.854 210.921 C 233.769 210.835,233.603 210.998,233.486 211.283 M186.629 214.000 C 186.776 214.550,187.064 215.270,187.267 215.600 C 187.525 216.017,187.557 215.895,187.371 215.200 C 187.224 214.650,186.936 213.930,186.733 213.600 C 186.475 213.183,186.443 213.305,186.629 214.000 M125.829 215.200 C 125.976 215.750,126.264 216.470,126.467 216.800 C 126.725 217.217,126.757 217.095,126.571 216.400 C 126.424 215.850,126.136 215.130,125.933 214.800 C 125.675 214.383,125.643 214.505,125.829 215.200 M101.429 215.600 C 101.576 216.150,101.864 216.870,102.067 217.200 C 102.325 217.617,102.357 217.495,102.171 216.800 C 102.024 216.250,101.736 215.530,101.533 215.200 C 101.275 214.783,101.243 214.905,101.429 215.600 M187.612 216.800 C 187.612 217.130,187.787 217.670,188.000 218.000 C 188.345 218.533,188.388 218.533,188.388 218.000 C 188.388 217.670,188.213 217.130,188.000 216.800 C 187.655 216.267,187.612 216.267,187.612 216.800 M218.857 219.657 C 218.161 221.234,217.655 222.588,217.734 222.667 C 217.812 222.746,218.446 221.520,219.143 219.943 C 219.839 218.366,220.345 217.012,220.266 216.933 C 220.188 216.854,219.554 218.080,218.857 219.657 M188.629 219.600 C 188.776 220.150,189.064 220.870,189.267 221.200 C 189.525 221.617,189.557 221.495,189.371 220.800 C 189.224 220.250,188.936 219.530,188.733 219.200 C 188.475 218.783,188.443 218.905,188.629 219.600 M163.200 219.600 C 163.200 219.820,163.389 220.000,163.621 220.000 C 163.852 220.000,164.233 220.549,164.467 221.220 C 164.701 221.892,164.977 222.356,165.080 222.253 C 165.357 221.976,163.970 219.200,163.554 219.200 C 163.359 219.200,163.200 219.380,163.200 219.600 M229.190 221.000 C 228.976 221.550,228.609 222.495,228.375 223.100 C 228.141 223.705,228.114 224.020,228.315 223.800 C 228.786 223.283,230.058 220.000,229.787 220.000 C 229.673 220.000,229.405 220.450,229.190 221.000 M162.444 221.644 C 162.198 222.351,162.066 223.000,162.152 223.085 C 162.238 223.171,162.509 222.662,162.756 221.956 C 163.002 221.249,163.134 220.600,163.048 220.515 C 162.962 220.429,162.691 220.938,162.444 221.644 M151.244 222.044 C 150.998 222.751,150.866 223.400,150.952 223.485 C 151.038 223.571,151.309 223.062,151.556 222.356 C 151.802 221.649,151.934 221.000,151.848 220.915 C 151.762 220.829,151.491 221.338,151.244 222.044 M165.200 223.059 C 165.200 223.558,166.916 228.018,167.054 227.879 C 167.226 227.707,165.592 222.800,165.363 222.800 C 165.273 222.800,165.200 222.917,165.200 223.059 M190.499 224.900 C 190.600 225.175,190.998 226.357,191.382 227.526 C 191.767 228.695,192.152 229.581,192.238 229.495 C 192.441 229.293,190.792 224.400,190.520 224.400 C 190.407 224.400,190.397 224.625,190.499 224.900 M216.067 225.980 C 215.833 226.651,215.727 227.200,215.831 227.200 C 216.101 227.200,216.856 225.122,216.657 224.924 C 216.567 224.833,216.301 225.308,216.067 225.980 M129.772 226.200 C 129.929 226.860,130.229 227.576,130.439 227.791 C 130.650 228.006,130.610 227.556,130.351 226.791 C 129.746 225.000,129.405 224.652,129.772 226.200 M105.429 226.400 C 105.576 226.950,105.864 227.670,106.067 228.000 C 106.325 228.417,106.357 228.295,106.171 227.600 C 106.024 227.050,105.736 226.330,105.533 226.000 C 105.275 225.583,105.243 225.705,105.429 226.400 M149.244 227.244 C 148.998 227.951,148.866 228.600,148.952 228.685 C 149.038 228.771,149.309 228.262,149.556 227.556 C 149.802 226.849,149.934 226.200,149.848 226.115 C 149.762 226.029,149.491 226.538,149.244 227.244 M159.644 229.244 C 159.398 229.951,159.266 230.600,159.352 230.685 C 159.438 230.771,159.709 230.262,159.956 229.556 C 160.202 228.849,160.334 228.200,160.248 228.115 C 160.162 228.029,159.891 228.538,159.644 229.244 M106.629 229.600 C 106.776 230.150,107.064 230.870,107.267 231.200 C 107.525 231.617,107.557 231.495,107.371 230.800 C 107.224 230.250,106.936 229.530,106.733 229.200 C 106.475 228.783,106.443 228.905,106.629 229.600 M225.179 230.255 C 224.958 230.836,224.852 231.385,224.943 231.476 C 225.033 231.567,225.299 231.092,225.533 230.420 C 226.053 228.928,225.739 228.782,225.179 230.255 M213.472 231.819 C 212.532 233.789,212.664 234.124,213.647 232.262 C 214.093 231.416,214.387 230.654,214.301 230.567 C 214.214 230.481,213.841 231.044,213.472 231.819 M168.467 232.020 C 168.701 232.692,168.967 233.167,169.057 233.076 C 169.256 232.878,168.501 230.800,168.231 230.800 C 168.127 230.800,168.233 231.349,168.467 232.020 M158.444 232.444 C 158.198 233.151,158.066 233.800,158.152 233.885 C 158.238 233.971,158.509 233.462,158.756 232.756 C 159.002 232.049,159.134 231.400,159.048 231.315 C 158.962 231.229,158.691 231.738,158.444 232.444 M107.645 232.400 C 107.653 232.730,108.006 233.720,108.429 234.600 C 108.852 235.480,109.086 235.762,108.949 235.226 C 108.573 233.761,107.629 231.714,107.645 232.400 M223.265 234.617 C 222.595 236.088,222.723 236.402,223.447 235.065 C 223.786 234.440,223.988 233.854,223.896 233.763 C 223.805 233.671,223.521 234.056,223.265 234.617 M169.372 234.600 C 169.537 235.040,170.129 236.622,170.688 238.115 C 171.246 239.608,171.769 240.764,171.849 240.684 C 172.053 240.480,169.844 234.504,169.421 234.118 C 169.225 233.939,169.204 234.151,169.372 234.600 M212.065 235.017 C 211.395 236.488,211.523 236.802,212.247 235.465 C 212.586 234.840,212.788 234.254,212.696 234.163 C 212.605 234.071,212.321 234.456,212.065 235.017 M133.029 235.200 C 133.176 235.750,133.464 236.470,133.667 236.800 C 133.925 237.217,133.957 237.095,133.771 236.400 C 133.624 235.850,133.336 235.130,133.133 234.800 C 132.875 234.383,132.843 234.505,133.029 235.200 M109.429 237.200 C 109.576 237.750,109.864 238.470,110.067 238.800 C 110.325 239.217,110.357 239.095,110.171 238.400 C 110.024 237.850,109.736 237.130,109.533 236.800 C 109.275 236.383,109.243 236.505,109.429 237.200 M194.812 237.200 C 194.812 237.530,194.987 238.070,195.200 238.400 C 195.545 238.933,195.588 238.933,195.588 238.400 C 195.588 238.070,195.413 237.530,195.200 237.200 C 194.855 236.667,194.812 236.667,194.812 237.200 M211.086 237.283 C 210.969 237.567,210.584 238.475,210.231 239.300 C 209.878 240.125,209.673 240.800,209.776 240.800 C 210.043 240.800,211.641 237.108,211.454 236.921 C 211.369 236.835,211.203 236.998,211.086 237.283 M156.200 238.400 C 156.050 238.873,156.017 239.350,156.127 239.460 C 156.237 239.570,156.450 239.273,156.600 238.800 C 156.750 238.327,156.783 237.850,156.673 237.740 C 156.563 237.630,156.350 237.927,156.200 238.400 M195.829 240.000 C 195.976 240.550,196.264 241.270,196.467 241.600 C 196.725 242.017,196.757 241.895,196.571 241.200 C 196.424 240.650,196.136 239.930,195.933 239.600 C 195.675 239.183,195.643 239.305,195.829 240.000 M135.029 240.800 C 135.176 241.350,135.464 242.070,135.667 242.400 C 135.925 242.817,135.957 242.695,135.771 242.000 C 135.624 241.450,135.336 240.730,135.133 240.400 C 134.875 239.983,134.843 240.105,135.029 240.800 M172.229 242.000 C 172.376 242.550,172.664 243.270,172.867 243.600 C 173.125 244.017,173.157 243.895,172.971 243.200 C 172.824 242.650,172.536 241.930,172.333 241.600 C 172.075 241.183,172.043 241.305,172.229 242.000 M143.244 243.244 C 142.998 243.951,142.866 244.600,142.952 244.685 C 143.038 244.771,143.309 244.262,143.556 243.556 C 143.802 242.849,143.934 242.200,143.848 242.115 C 143.762 242.029,143.491 242.538,143.244 243.244 M154.444 243.244 C 154.198 243.951,154.066 244.600,154.152 244.685 C 154.238 244.771,154.509 244.262,154.756 243.556 C 155.002 242.849,155.134 242.200,155.048 242.115 C 154.962 242.029,154.691 242.538,154.444 243.244 M111.662 243.200 C 111.661 243.530,112.006 244.520,112.429 245.400 C 112.852 246.280,113.086 246.550,112.950 246.000 C 112.575 244.495,111.666 242.516,111.662 243.200 M219.265 243.817 C 218.595 245.288,218.723 245.602,219.447 244.265 C 219.786 243.640,219.988 243.054,219.896 242.963 C 219.805 242.871,219.521 243.256,219.265 243.817 M206.857 246.857 C 206.161 248.434,205.655 249.788,205.734 249.867 C 205.812 249.946,206.446 248.720,207.143 247.143 C 207.839 245.566,208.345 244.212,208.266 244.133 C 208.188 244.054,207.554 245.280,206.857 246.857 M197.829 245.600 C 197.976 246.150,198.264 246.870,198.467 247.200 C 198.725 247.617,198.757 247.495,198.571 246.800 C 198.424 246.250,198.136 245.530,197.933 245.200 C 197.675 244.783,197.643 244.905,197.829 245.600 M142.044 246.444 C 141.798 247.151,141.666 247.800,141.752 247.885 C 141.838 247.971,142.109 247.462,142.356 246.756 C 142.602 246.049,142.734 245.400,142.648 245.315 C 142.562 245.229,142.291 245.738,142.044 246.444 M137.029 246.400 C 137.176 246.950,137.464 247.670,137.667 248.000 C 137.925 248.417,137.957 248.295,137.771 247.600 C 137.624 247.050,137.336 246.330,137.133 246.000 C 136.875 245.583,136.843 245.705,137.029 246.400 M218.286 246.083 C 218.169 246.367,217.784 247.275,217.431 248.100 C 217.078 248.925,216.873 249.600,216.976 249.600 C 217.243 249.600,218.841 245.908,218.654 245.721 C 218.569 245.635,218.403 245.798,218.286 246.083 M113.429 248.000 C 113.576 248.550,113.864 249.270,114.067 249.600 C 114.325 250.017,114.357 249.895,114.171 249.200 C 114.024 248.650,113.736 247.930,113.533 247.600 C 113.275 247.183,113.243 247.305,113.429 248.000 M174.462 248.000 C 174.461 248.330,174.806 249.320,175.229 250.200 C 175.652 251.080,175.886 251.350,175.750 250.800 C 175.375 249.295,174.466 247.316,174.462 248.000 M140.210 251.170 C 139.914 252.100,139.370 252.257,139.065 251.500 C 138.938 251.186,138.851 251.168,138.832 251.451 C 138.749 252.628,139.985 252.892,140.405 251.788 C 140.634 251.184,140.744 250.610,140.648 250.514 C 140.552 250.418,140.354 250.713,140.210 251.170 M203.974 253.399 C 203.049 255.504,202.475 256.361,202.089 256.213 C 201.772 256.091,201.601 256.204,201.692 256.475 C 202.095 257.684,202.788 256.972,204.147 253.956 C 204.958 252.158,205.549 250.616,205.463 250.529 C 205.376 250.442,204.706 251.734,203.974 253.399 M176.229 252.800 C 176.376 253.350,176.664 254.070,176.867 254.400 C 177.125 254.817,177.157 254.695,176.971 254.000 C 176.824 253.450,176.536 252.730,176.333 252.400 C 176.075 251.983,176.043 252.105,176.229 252.800 M150.444 254.044 C 150.198 254.751,150.066 255.400,150.152 255.485 C 150.238 255.571,150.509 255.062,150.756 254.356 C 151.002 253.649,151.134 253.000,151.048 252.915 C 150.962 252.829,150.691 253.338,150.444 254.044 M115.612 254.000 C 115.612 254.330,115.787 254.870,116.000 255.200 C 116.345 255.733,116.388 255.733,116.388 255.200 C 116.388 254.870,116.213 254.330,116.000 254.000 C 115.655 253.467,115.612 253.467,115.612 254.000 M214.286 255.283 C 214.169 255.567,213.784 256.475,213.431 257.300 C 213.078 258.125,212.873 258.800,212.976 258.800 C 213.243 258.800,214.841 255.108,214.654 254.921 C 214.569 254.835,214.403 254.998,214.286 255.283 M177.429 256.000 C 177.576 256.550,177.864 257.270,178.067 257.600 C 178.325 258.017,178.357 257.895,178.171 257.200 C 178.024 256.650,177.736 255.930,177.533 255.600 C 177.275 255.183,177.243 255.305,177.429 256.000 M116.629 256.800 C 116.776 257.350,117.064 258.070,117.267 258.400 C 117.525 258.817,117.557 258.695,117.371 258.000 C 117.224 257.450,116.936 256.730,116.733 256.400 C 116.475 255.983,116.443 256.105,116.629 256.800 M149.244 257.244 C 148.998 257.951,148.866 258.600,148.952 258.685 C 149.038 258.771,149.309 258.262,149.556 257.556 C 149.802 256.849,149.934 256.200,149.848 256.115 C 149.762 256.029,149.491 256.538,149.244 257.244 M147.244 262.844 C 146.998 263.551,146.866 264.200,146.952 264.285 C 147.038 264.371,147.309 263.862,147.556 263.156 C 147.802 262.449,147.934 261.800,147.848 261.715 C 147.762 261.629,147.491 262.138,147.244 262.844 M180.229 263.600 C 180.376 264.150,180.664 264.870,180.867 265.200 C 181.125 265.617,181.157 265.495,180.971 264.800 C 180.824 264.250,180.536 263.530,180.333 263.200 C 180.075 262.783,180.043 262.905,180.229 263.600 M210.065 265.017 C 209.395 266.488,209.523 266.802,210.247 265.465 C 210.586 264.840,210.788 264.254,210.696 264.163 C 210.605 264.071,210.321 264.456,210.065 265.017 M181.458 266.798 C 181.600 267.347,182.050 268.517,182.459 269.398 C 182.867 270.279,183.085 270.551,182.942 270.002 C 182.800 269.453,182.350 268.283,181.941 267.402 C 181.533 266.521,181.315 266.249,181.458 266.798 M120.629 267.600 C 120.776 268.150,121.064 268.870,121.267 269.200 C 121.525 269.617,121.557 269.495,121.371 268.800 C 121.224 268.250,120.936 267.530,120.733 267.200 C 120.475 266.783,120.443 266.905,120.629 267.600 M208.672 268.219 C 207.732 270.189,207.864 270.524,208.847 268.662 C 209.293 267.816,209.587 267.054,209.501 266.967 C 209.414 266.881,209.041 267.444,208.672 268.219 M144.646 269.846 C 144.292 270.885,144.072 271.805,144.156 271.890 C 144.241 271.974,144.600 271.193,144.954 270.154 C 145.308 269.115,145.528 268.195,145.444 268.110 C 145.359 268.026,145.000 268.807,144.646 269.846 M121.829 270.800 C 121.976 271.350,122.264 272.070,122.467 272.400 C 122.725 272.817,122.757 272.695,122.571 272.000 C 122.424 271.450,122.136 270.730,121.933 270.400 C 121.675 269.983,121.643 270.105,121.829 270.800 M143.244 273.644 C 142.998 274.351,142.866 275.000,142.952 275.085 C 143.038 275.171,143.309 274.662,143.556 273.956 C 143.802 273.249,143.934 272.600,143.848 272.515 C 143.762 272.429,143.491 272.938,143.244 273.644 M205.979 274.255 C 205.758 274.836,205.652 275.385,205.743 275.476 C 205.833 275.567,206.099 275.092,206.333 274.420 C 206.853 272.928,206.539 272.782,205.979 274.255 M317.968 275.912 L 317.021 277.000 317.974 276.125 L 318.927 275.251 320.671 276.680 L 322.415 278.109 321.190 280.354 C 320.517 281.589,320.257 282.240,320.614 281.800 C 320.971 281.360,321.601 280.347,322.015 279.549 L 322.767 278.098 321.283 276.730 C 319.132 274.747,319.010 274.717,317.968 275.912 M277.623 277.433 C 277.636 278.515,277.799 280.120,277.986 281.000 C 278.223 282.117,278.260 281.573,278.108 279.200 C 277.865 275.414,277.588 274.401,277.623 277.433 M204.419 277.851 C 203.551 279.813,203.350 280.670,204.034 279.496 C 204.682 278.383,205.630 276.000,205.424 276.000 C 205.321 276.000,204.869 276.833,204.419 277.851 M185.429 277.600 C 185.576 278.150,185.864 278.870,186.067 279.200 C 186.325 279.617,186.357 279.495,186.171 278.800 C 186.024 278.250,185.736 277.530,185.533 277.200 C 185.275 276.783,185.243 276.905,185.429 277.600 M315.584 278.616 C 314.830 279.395,313.264 280.685,312.106 281.483 C 309.753 283.103,309.334 283.624,311.270 282.523 C 312.523 281.809,317.608 277.241,317.178 277.214 C 317.057 277.206,316.339 277.837,315.584 278.616 M124.629 278.400 C 124.776 278.950,125.064 279.670,125.267 280.000 C 125.525 280.417,125.557 280.295,125.371 279.600 C 125.224 279.050,124.936 278.330,124.733 278.000 C 124.475 277.583,124.443 277.705,124.629 278.400 M202.865 281.417 C 202.195 282.888,202.323 283.202,203.047 281.865 C 203.386 281.240,203.588 280.654,203.496 280.563 C 203.405 280.471,203.121 280.856,202.865 281.417 M187.429 282.800 C 187.576 283.350,187.864 284.070,188.067 284.400 C 188.325 284.817,188.357 284.695,188.171 284.000 C 188.024 283.450,187.736 282.730,187.533 282.400 C 187.275 281.983,187.243 282.105,187.429 282.800 M318.383 284.500 C 317.640 285.435,317.348 285.946,317.735 285.636 C 318.463 285.051,320.177 282.800,319.894 282.800 C 319.806 282.800,319.126 283.565,318.383 284.500 M139.244 284.444 C 138.998 285.151,138.866 285.800,138.952 285.885 C 139.038 285.971,139.309 285.462,139.556 284.756 C 139.802 284.049,139.934 283.400,139.848 283.315 C 139.762 283.229,139.491 283.738,139.244 284.444 M200.857 286.057 C 200.161 287.634,199.655 288.988,199.734 289.067 C 199.812 289.146,200.446 287.920,201.143 286.343 C 201.839 284.766,202.345 283.412,202.266 283.333 C 202.188 283.254,201.554 284.480,200.857 286.057 M278.456 283.600 C 278.456 283.930,278.611 284.560,278.800 285.000 C 279.017 285.504,279.144 285.578,279.144 285.200 C 279.144 284.870,278.989 284.240,278.800 283.800 C 278.583 283.296,278.456 283.222,278.456 283.600 M303.738 283.694 C 303.992 283.856,305.190 283.988,306.400 283.988 C 307.610 283.988,308.808 283.856,309.062 283.694 C 309.316 283.532,308.118 283.400,306.400 283.400 C 304.682 283.400,303.484 283.532,303.738 283.694 M315.381 288.100 L 313.800 289.800 315.500 288.219 C 317.081 286.748,317.384 286.400,317.081 286.400 C 317.016 286.400,316.251 287.165,315.381 288.100 M279.604 287.320 C 279.589 288.581,283.591 293.547,285.383 294.491 C 285.832 294.728,285.243 294.057,284.073 292.999 C 282.903 291.942,281.420 290.160,280.777 289.039 C 280.134 287.917,279.606 287.144,279.604 287.320 M128.629 289.200 C 128.776 289.750,129.064 290.470,129.267 290.800 C 129.525 291.217,129.557 291.095,129.371 290.400 C 129.224 289.850,128.936 289.130,128.733 288.800 C 128.475 288.383,128.443 288.505,128.629 289.200 M198.865 290.617 C 198.195 292.088,198.323 292.402,199.047 291.065 C 199.386 290.440,199.588 289.854,199.496 289.763 C 199.405 289.671,199.121 290.056,198.865 290.617 M312.200 290.652 C 311.540 291.215,309.200 292.570,307.000 293.663 C 304.800 294.756,303.450 295.525,304.000 295.372 C 306.581 294.656,314.962 289.643,313.600 289.631 C 313.490 289.630,312.860 290.089,312.200 290.652 M135.650 294.250 C 135.173 295.496,134.850 296.584,134.933 296.666 C 135.015 296.749,135.473 295.796,135.950 294.550 C 136.427 293.304,136.750 292.216,136.667 292.134 C 136.585 292.051,136.127 293.004,135.650 294.250 M197.472 293.819 C 196.532 295.789,196.664 296.124,197.647 294.262 C 198.093 293.416,198.387 292.654,198.301 292.567 C 198.214 292.481,197.841 293.044,197.472 293.819 M191.429 293.600 C 191.576 294.150,191.864 294.870,192.067 295.200 C 192.325 295.617,192.357 295.495,192.171 294.800 C 192.024 294.250,191.736 293.530,191.533 293.200 C 191.275 292.783,191.243 292.905,191.429 293.600 M288.400 295.982 C 288.730 296.205,289.345 296.391,289.767 296.394 C 290.790 296.402,290.471 296.173,289.000 295.844 C 288.124 295.648,287.962 295.685,288.400 295.982 M300.800 296.000 C 299.996 296.257,299.957 296.323,300.600 296.332 C 301.040 296.338,301.760 296.189,302.200 296.000 C 303.219 295.562,302.168 295.562,300.800 296.000 M196.065 297.017 C 195.395 298.488,195.523 298.802,196.247 297.465 C 196.586 296.840,196.788 296.254,196.696 296.163 C 196.605 296.071,196.321 296.456,196.065 297.017 M297.700 296.676 C 298.085 296.776,298.715 296.776,299.100 296.676 C 299.485 296.575,299.170 296.493,298.400 296.493 C 297.630 296.493,297.315 296.575,297.700 296.676 M294.100 297.076 C 294.485 297.176,295.115 297.176,295.500 297.076 C 295.885 296.975,295.570 296.893,294.800 296.893 C 294.030 296.893,293.715 296.975,294.100 297.076 M131.829 298.000 C 131.976 298.550,132.264 299.270,132.467 299.600 C 132.725 300.017,132.757 299.895,132.571 299.200 C 132.424 298.650,132.136 297.930,131.933 297.600 C 131.675 297.183,131.643 297.305,131.829 298.000 M133.756 299.023 C 133.303 300.001,133.063 300.800,133.223 300.800 C 133.531 300.800,134.922 297.589,134.707 297.374 C 134.637 297.304,134.209 298.046,133.756 299.023 M194.986 299.645 C 194.709 300.516,194.678 300.522,194.149 299.798 C 193.847 299.385,193.600 299.227,193.600 299.447 C 193.600 300.761,194.644 301.261,195.135 300.183 C 195.407 299.585,195.550 299.016,195.451 298.918 C 195.353 298.820,195.144 299.147,194.986 299.645 " stroke="none" fill="#d47c7c" fill-rule="evenodd"></path></g></svg>